# xmcd
#
# Track frame offsets: 
#        182
#        12105
#        24265
#        38130
#        62655
#        73175
#        88030
#        107832
#        119807
#        133545
#        145507
#        158500
#        169720
#        180987
#        193042
#        215515
#        227470
#
# Disc length: 3213 seconds
#
# Revision: 0
# Processed by: cddbd v1.5.1PL0 Copyright (c) Steve Scherf et al.
# Submitted via: ExactAudioCopy v0.95a5
#
DISCID=dd0c8b11
DTITLE=16 Greatest Hits - Memphis Slim
DYEAR=1991
DGENRE=Blues
TTITLE0=Mother Earth
TTITLE1=Trouble Trouble
TTITLE2=I Guess I'm A Fool
TTITLE3=Fattening Frogs for Snakes
TTITLE4=Havin' Fun
TTITLE5=I'm Crying
TTITLE6=Four Hundred Years
TTITLE7=For a Day
TTITLE8=My Baby
TTITLE9=Really Got the Blues
TTITLE10=Tijuana
TTITLE11=Marack
TTITLE12=Feelin' Low
TTITLE13=Rockin' The Pad
TTITLE14=Boogie Jam
TTITLE15=Reverend Bounce
TTITLE16=Slim's Blues
EXTD=
EXTT0=
EXTT1=
EXTT2=
EXTT3=
EXTT4=
EXTT5=
EXTT6=
EXTT7=
EXTT8=
EXTT9=
EXTT10=
EXTT11=
EXTT12=
EXTT13=
EXTT14=
EXTT15=
EXTT16=
PLAYORDER=
